<svg xmlns="http://www.w3.org/2000/svg" width="1116" height="840" viewBox="0 0 372 280">
  <defs>
    <style>
      .cls-1 {
        fill: #464646;
        stroke: #363636;
        stroke-width: 4px;
      }

      .cls-2, .cls-3 {
        fill: #fff;
      }

      .cls-3 {
        fill-rule: evenodd;
      }
    </style>
  </defs>
  <g id="Artboard_1" data-name="Artboard 1">
    <rect id="Backdrop" class="cls-1" x="57" y="11" width="259" height="259" rx="129.5" ry="129.5"/>
    <g id="Person_Two" data-name="Person Two">
      <circle class="cls-2" cx="123.766" cy="166.25" r="16.484"/>
      <path id="Ellipse_1_copy" data-name="Ellipse 1 copy" class="cls-3" d="M123.277,391c-4.554.138-8.368-3.778-8.518-8.746s3.42-9.108,7.974-9.245,8.368,3.778,8.518,8.746S127.831,390.866,123.277,391Z" transform="translate(0 -241)"/>
    </g>
    <g id="Person_One" data-name="Person One">
      <path id="Ellipse_1_copy_3" data-name="Ellipse 1 copy 3" class="cls-3" d="M245.537,304.269c4.545,0,8.23,4.037,8.23,9.018s-3.685,9.019-8.23,9.019-8.23-4.038-8.23-9.019S240.992,304.269,245.537,304.269Z" transform="translate(0 -241)"/>
      <path id="Ellipse_1_copy_2" data-name="Ellipse 1 copy 2" class="cls-3" d="M245.48,322a16.537,16.537,0,1,1-16.463,16.537A16.5,16.5,0,0,1,245.48,322Z" transform="translate(0 -241)"/>
    </g>
    <path id="Ladder" class="cls-3" d="M181.813,402.677l0.223,0.223-0.166.167-0.279-.279c-5.427,2.4-10.738,5.775-16.173,8.264-2.272,1.04-4.327,2.508-6.558,3.439-0.6.251-.945,0.674-1.5,0.943-2.075,1.006-4.32,2.262-6.391,3.273-0.288.14-.543,0.294-0.723,0.388a3.024,3.024,0,0,0-.444.555c-0.165.067-.518-0.027-0.723,0.055-1.647.658-3.017,1.808-4.668,2.552-4.079,1.837-8.177,4.272-12.227,6.211-0.928.444-1.581,1.07-2.5,1.5-2.779,1.294-5.618,3-8.392,4.271-0.665.3-1.06,0.747-1.723,1.054-0.694.321-1.509,0.893-2.278,1.165a2.435,2.435,0,0,0-.89.11c-0.014.741-1.453,1.338-2,1.22-1.3-.164-3.82-2.632-2.842-3.841a2.653,2.653,0,0,1,1.611-1.5l0.945,0.057,1.279-.832c1.153-.463,2.066-0.97,3.168-1.5a4.284,4.284,0,0,0,1.667-1.11c0.287-.7-1.155-2.941-1.452-3.785-0.533-1.512-1.33-3.167-1.953-4.619-0.27-.629-0.68-1.033-0.893-1.67-0.162-.484-0.365-1.191-0.558-1.669-0.218-.538-0.595-0.9-0.781-1.447a8.714,8.714,0,0,0-1.06-2.393,0.292,0.292,0,0,1-.167-0.056,41.523,41.523,0,0,0-5.336,2.662l-0.944,1.055a13.448,13.448,0,0,1-1.445.665,2.639,2.639,0,0,1-.5-0.39,4.15,4.15,0,0,0-.5-0.056l-0.5-.5a2.369,2.369,0,0,1-1.337-1.671,2.247,2.247,0,0,1-.391-1.168,2.576,2.576,0,0,1,1.5-1.722c0.658-.266,1.26.192,1.891,0l5.057-2.718c1.939-.806,3.639-2.143,5.613-3.051,2.675-1.23,5.408-2.871,8.059-4.159,1.091-.53,1.864-1.2,2.945-1.72,2.318-1.116,4.6-2.535,7-3.661a12.876,12.876,0,0,0,2.612-1.275,1.073,1.073,0,0,0-.167-0.279,0.528,0.528,0,0,1-.389-0.167c0-.718-0.726-1.7-0.171-2.392a2.947,2.947,0,0,1,1.389-1.388c1.919-.849,3.734-2.025,5.724-2.94,6.978-3.209,13.956-7.362,21.12-10.871,25.874-12.673,51.854-26.923,77.475-39.6,6.455-3.194,12.757-6.588,19.119-9.762,1.206-.6,2.322-1.229,3.446-1.774a9.8,9.8,0,0,1,.889-0.555c0.205-.073.482,0.055,0.668,0a4.878,4.878,0,0,0,.722-0.722,2.187,2.187,0,0,1,1.167-.165,2.284,2.284,0,0,1,1,1.113c0.7,1.3.3,2.189,0.339,3.449a9.25,9.25,0,0,1-2.723,1.5c-0.536.248-.873,0.595-1.39,0.832a3.757,3.757,0,0,0-1.611,1.055c1.036,1.279,2.239,2.882,3.121,4.231,0.392,0.6,1.25,1.424,1.671,2.116,0.716,1.175,1.835,1.955,2.563,3.119a18.9,18.9,0,0,0,2.285,2.951c1.752-.48,3.917-1.894,5.614-2.717,0.876-.426,1.827-1.254,2.668-0.664a2.068,2.068,0,0,1,.948,1.058,5.352,5.352,0,0,1-.329,3.671,8.729,8.729,0,0,1-2.167,1.164c-0.729.336-1.213,0.812-1.945,1.166-1.373.663-2.845,1.428-4.224,2.107-0.843.414-1.637,0.856-2.39,1.276-0.279.155-.323,0.418-0.5,0.5l-0.278-.056a31.416,31.416,0,0,0-3,1.664c-1.757.882-3.672,1.939-5.447,2.773-1.457.684-2.555,1.612-4,2.33-1.41.7-3.088,1.518-4.5,2.274-0.4.216-.6,0.633-0.889,0.777a8.448,8.448,0,0,0-2.5,1.276c0.218,0.616.753,0.953,0.058,1.613-0.539.162-.287,0.726-0.832,1.055-0.735.444-1.665,0.793-2.446,1.221a4.707,4.707,0,0,1-.555.666c-0.049.014-.263-0.127-0.334-0.112a11.628,11.628,0,0,0-2.112,1.221c-0.989.468-1.979,1.079-3.056,1.609-4.825,2.373-9.481,5.1-14.339,7.654-0.2.107-.529,0.075-0.723,0.166-0.779.365-1.244,0.874-2,1.221-1.407.644-3.024,1.459-4.391,2.162l-0.445.445c-5.773,2.788-11.584,6.049-17.4,9.152-1.368.73-3,1.437-4.391,2.162-1.854.97-3.427,2.006-5.279,2.941a29.393,29.393,0,0,0-4.558,2.329c0.209,0.341.141,0.443-.221,0.778a1.177,1.177,0,0,1-.334-0.111,0.429,0.429,0,0,0-.056-0.39C185.45,400.722,183.183,401.367,181.813,402.677Zm85.6-76.463c-2.571,1.055-4.95,2.695-7.559,3.882-4.666,2.124-9.173,4.735-13.9,7.1-12.55,6.286-25.115,13.023-37.626,19.246-1.723.857-3.253,1.99-5,2.773-4.459,2-8.84,4.623-13.228,6.655-1.811.839-3.336,1.945-5.169,2.718-2.738,1.155-5.28,2.788-8.059,4.049-8.323,3.778-16.443,8.636-24.732,12.812-2.336,1.177-4.9,2.523-7.281,3.605-0.894.406-1.483,1.021-2.389,1.387a34.252,34.252,0,0,0-3.057,1.608,9.953,9.953,0,0,0-2.167,1.165,0.646,0.646,0,0,0,.056.278c0.046,0.126,0,.015.167,0.167a5.694,5.694,0,0,1,1.556-.776,4.3,4.3,0,0,1,.333-0.333c1.013-.49,2.172-1.01,3.168-1.5a11.631,11.631,0,0,1,2-1.11l0.223,0.112c0.018-.056.037-0.112,0.055-0.167l1.167-.722c1.341-.655,2.939-1.407,4.28-2.051,1.592-.766,2.856-1.668,4.446-2.441,2.824-1.374,5.789-2.866,8.614-4.27,2.67-1.327,5.217-3.079,7.893-3.993l1.111-.777c0.245-.111.76-0.228,1-0.333,0.036-.074.073-0.148,0.11-0.222,0.392-.211.893-0.494,1.39-0.721,3.1-1.417,6.3-3.182,9.393-4.6,1.279-.588,2.235-1.362,3.5-1.941,7.255-3.317,14.282-7.544,21.564-10.87,2.931-1.339,5.611-3.161,8.5-4.382,0.976-.412,1.762-1.063,2.668-1.331,0.107-.032,1-0.729,1.333-0.888,0.593-.282,1.4-0.591,2-0.887,0.566-.278.859-0.611,1.445-0.888,9.168-4.324,18-9.46,27.177-14.032,2.9-1.446,5.633-2.774,8.56-4.215,0.99-.487,1.758-1.087,2.778-1.553a21.686,21.686,0,0,0,4-2A1.044,1.044,0,0,0,267.412,326.214Zm0.671,2.893,0.167-.167a2.224,2.224,0,0,0-.224-1.112,0.48,0.48,0,0,1-.223,0,0.27,0.27,0,0,0-.055.167c-0.228.367-.173,0.521,0.224,0.89A0.4,0.4,0,0,0,268.083,329.107Zm-1.28-.725a14.387,14.387,0,0,0-4.335,2.33,2.2,2.2,0,0,0,.5,1.057,15.849,15.849,0,0,0,4.224-2.107,1.206,1.206,0,0,1-.168-1.057Zm13.759,14.648c-0.862.3-1.6,0.866-2.5,1.276-2.07.945-4.237,2.151-6.28,3.161-0.875.432-1.5,0.978-2.39,1.387-5.824,2.675-11.583,6.175-17.34,8.985-1.739.848-3.149,1.923-4.891,2.774-4.542,2.218-9.107,4.895-13.616,7.155-1.4.7-2.491,1.53-3.89,2.219-5.333,2.626-10.676,5.653-16.006,8.32-2.589,1.295-5.073,2.784-7.614,3.938-1,.455-1.7,1.071-2.668,1.553-2.778,1.384-5.689,2.948-8.5,4.27l-1.278.833c-3.3,1.522-6.491,3.489-9.837,5.158-6.613,3.3-13.193,7.066-19.842,10.15-0.423.2-.581,0.448-1,0.666-1.148.6-2.493,1.227-3.668,1.774-0.811.378-1.345,0.878-2.168,1.276-2.008.973-4.248,2.019-6.224,3.106l-0.389.389c-0.91.5-2.37,0.792-3.057,1.719a1.626,1.626,0,0,0,.334.335,11.21,11.21,0,0,1,2.5-1.276c0.906-.417,1.616-1,2.446-1.331,0.976-.385,1.667-1.03,2.612-1.5,2.375-1.178,4.955-2.5,7.336-3.66,4.16-2.03,8.108-4.461,12.227-6.323,1.209-.547,2.25-1.27,3.39-1.72l1.167-.721c1.432-.7,3.077-1.647,4.558-2.218,0.421-.162.577-0.463,1-0.666,0.9-.434,2.034-0.938,2.946-1.386l0.778-.555c4.245-1.913,8.524-4.593,12.949-6.6,1.236-.561,2.166-1.331,3.39-1.942,9.387-4.682,19.013-10.372,28.567-15.087,4.136-2.041,8.254-4.587,12.171-6.378,0.411-.188.595-0.481,1-0.666,2.029-.931,3.907-2.195,6-3.218,4.943-2.412,9.8-5.368,14.783-7.654,1.389-.637,2.466-1.486,3.835-2.163,2.128-1.053,4.238-2.318,6.447-3.439a11.71,11.71,0,0,0,2.945-1.609A1.23,1.23,0,0,0,280.562,343.03Zm-0.386,2.057a23.436,23.436,0,0,0-3.335,1.664,6.491,6.491,0,0,0-1.778,1,1.713,1.713,0,0,0,.334.445,13.816,13.816,0,0,1,1.445-.665c0.807-.374,1.366-0.851,2.167-1.276a2.635,2.635,0,0,0,1.112-.666A0.591,0.591,0,0,0,280.176,345.087Zm0.279,1.169a6.694,6.694,0,0,1-1.278.61c-1.318.688-2.532,1.47-3.779,2.219l0.056,0.056,0.055-.056a7.858,7.858,0,0,0,1.723-.832,13.384,13.384,0,0,0,3.391-1.83Zm-18.708-14.377a1.091,1.091,0,0,0-.278.166l0.055,0.056-0.055.056a31.5,31.5,0,0,1,3.622,4.621q0.5,0.556,1,1.114c1,1.584,2.373,2.748,3.4,4.4,0.632,1.017,1.584,1.793,2.173,2.728a1.083,1.083,0,0,0,.779.558l-0.222-.223c-0.14-.867-2.277-2.8-2.9-3.786-0.739-1.176-1.884-2.192-2.675-3.453A44.873,44.873,0,0,0,261.747,331.879Zm-0.444,1a0.661,0.661,0,0,0-.278.056l0.056,0.055c0.124,0.778,2.164,2.718,2.73,3.619,1.177,1.872,3,3.645,4.18,5.513q0.529,0.585,1.058,1.169a15.112,15.112,0,0,0,2.341,3.007,1.228,1.228,0,0,0,.333-0.222l-0.056-.055,0.056-.056Zm-1.837-.837a4.467,4.467,0,0,1-1.167.5c-0.955.426-1.851,0.957-2.723,1.387-1.774.874-3.3,1.932-5.113,2.773a38.647,38.647,0,0,0-4.113,2.108l0.056,0.167a2.589,2.589,0,0,0,.446,1c0.72,0.086,3.011-1.484,3.891-1.886,1.058-.483,2.361-1.113,3.39-1.608,0.737-.354,1.219-0.861,1.945-1.165a16.6,16.6,0,0,0,4-2.108l-0.056-.055,0.056-.056C259.743,332.708,259.791,332.444,259.466,332.042Zm1.45,2.116c-2.986,1.542-5.86,3.067-8.893,4.659-1.38.725-3.133,1.184-4.446,2.33l0.112,0.111c0.233,1.067,1.769,2.2,2.4,3.285,1.287,2.235,3.37,4.182,4.793,6.459a11.874,11.874,0,0,0,2.451,3.007,25.347,25.347,0,0,1,2.89-1.442c2.493-1.23,4.924-2.625,7.336-3.883,0.888-.462,1.617-0.941,2.446-1.331,0.372-.175.7-0.367,0.61-0.722-0.148-.924-2.092-2.6-2.73-3.619-0.854-1.366-2.185-2.636-3.009-4.009l-0.892-1A21.181,21.181,0,0,0,260.916,334.158Zm13.2,15.648c-3.328,1.309-6.517,3.594-9.893,4.992-0.862.356-1.777,0.934-2.556,1.331a2.21,2.21,0,0,0-.612.5l-0.055.056,0.167,0.056c3.2-1.464,6.2-3.467,9.448-4.992C271.3,351.429,273.958,350.274,274.12,349.806Zm-15.175,6.486,0.335,0.334A18.776,18.776,0,0,0,262,355.239c1.63-.815,3.241-1.756,4.946-2.607,1.054-.525,2.143-1.191,3.279-1.719a7.986,7.986,0,0,0,2.168-1.165,1.99,1.99,0,0,0-.39-0.5c-0.769.507-1.734,0.871-2.5,1.276-2.309,1.217-4.345,2.463-6.669,3.661A18.135,18.135,0,0,0,258.945,356.292Zm-12.926-15.815a0.278,0.278,0,0,0,.056.167A0.292,0.292,0,0,0,246.019,340.477Zm0.111,0.223c0.06,0.655,1.635,2.377,2.063,3.062q0.334,0.333.668,0.668c1.207,2.088,3.257,4.4,4.57,6.236,0.393,0.549,1.975,2.93,2.507,3.063a14.378,14.378,0,0,1-1.616-2.283l-0.668-.668c-0.811-1.322-1.985-2.579-2.787-3.9l-0.891-1A30.431,30.431,0,0,0,246.13,340.7Zm-0.611.611a1.593,1.593,0,0,0,.112.333A0.313,0.313,0,0,0,245.519,341.311Zm0.223,0.334c0.127,0.8,1.459,1.9,1.951,2.728,1.408,2.383,3.537,4.539,5.016,6.9,0.6,0.968,1.391,1.735,1.95,2.617a1.88,1.88,0,0,0,.724.613c-2.075-3.185-4.777-6.441-7.077-9.41A34.25,34.25,0,0,0,245.742,341.645Zm-2.171-1.394c-2.912,1.324-5.641,2.98-8.559,4.437-1.37.685-3.359,1.373-4.612,2.5a2.622,2.622,0,0,0,.558,1.225c1.935-.877,3.939-2,5.835-2.94,0.825-.406,1.355-0.9,2.168-1.276,0.774-.355,1.732-0.78,2.5-1.164,0.407-.2.593-0.479,1-0.666a5.173,5.173,0,0,0,1.556-.888A5.177,5.177,0,0,0,243.571,340.251Zm16.488,16.821a3.5,3.5,0,0,0-.667.444c0.019,0.018.037,0.037,0.056,0.056l0.055-.056a1.014,1.014,0,0,0,.667-0.333Zm-14.538-14.427a0.679,0.679,0,0,1-.334-0.223c-1.7.718-3.256,1.808-5,2.552-0.45.191-1.686,0.58-1.889,1.109-0.66,1.125.3,1.568,0.114,2.225a3.9,3.9,0,0,1-1.556.888l-1.167.721a10.46,10.46,0,0,0-2.723,1.5c0.037,0.074.075,0.148,0.112,0.223,0.183,0.916,1.566,2.186,2.118,3.117,0.788,1.332,1.889,2.523,2.731,3.953a19.544,19.544,0,0,0,2.787,3.9c2.676-1.116,5.2-2.767,7.891-4.105a20.6,20.6,0,0,0,2.946-1.5c0.359-.521,2.788-1.139,3-1.664,0.1-.222.093-0.112,0-0.334-0.147-.912-1.869-2.393-2.452-3.341-1.024-1.664-2.568-3.294-3.512-4.955q-0.473-.585-0.947-1.169a2.48,2.48,0,0,0,0-.334,9,9,0,0,1-.78-0.669C246.5,343.968,245.842,343.3,245.521,342.645Zm10.529,11.306a0.278,0.278,0,0,0,.056.167A0.287,0.287,0,0,0,256.05,353.951Zm1.23,4.674c-1.966.784-3.711,2.006-5.724,3.051a12.557,12.557,0,0,0-2.39,1.276l0.056,0.055A8.454,8.454,0,0,1,251,362.12c1.434-.753,2.548-1.506,4-2.219C255.443,359.685,257.137,359,257.28,358.625Zm-9.894,3.768,0.389,0.39c1.789-.714,3.4-1.923,5.225-2.774a13.038,13.038,0,0,0,3.167-1.719,1.446,1.446,0,0,0-.278-0.39,0.278,0.278,0,0,1-.167-0.056,23.262,23.262,0,0,1-3.279,1.72c-0.79.361-1.319,0.862-2.112,1.22A10.587,10.587,0,0,0,247.386,362.393Zm-10.145-15.366c-1.586.985-3.506,1.739-5.169,2.718l0.111,0.112,0.111-.111a5.637,5.637,0,0,0,1.946-.943,11.741,11.741,0,0,0,3.056-1.609C237.278,347.139,237.259,347.083,237.241,347.027Zm11.814,15.925-0.111.111L249,363.118l0.111-.111Zm-1.946.609a2.747,2.747,0,0,0-1.056.61l0.056,0.056,0.111-.112A1.133,1.133,0,0,0,247.109,363.561Zm0.5,0.835a6.937,6.937,0,0,0-1.167.61,0.22,0.22,0,0,1,0,.111l0.167,0.056A1.572,1.572,0,0,0,247.611,364.4Zm-2.671-.783a14.454,14.454,0,0,0-2.334,1.22,0.908,0.908,0,0,0,.279.5c0.438-.123,1.713-0.544,1.889-1A0.81,0.81,0,0,0,244.94,363.613Zm-12.7-11.587a0.418,0.418,0,0,0,.334.334Zm0.836,1.169a0.285,0.285,0,0,0,.056.167A0.285,0.285,0,0,0,233.078,353.2Zm0.167,0.167a0.285,0.285,0,0,0,.056.167A0.285,0.285,0,0,0,233.245,353.362Zm0.112,0.223a0.28,0.28,0,0,0,.056.167A0.292,0.292,0,0,0,233.357,353.585Zm-5.792-5.014c-2.524.822-5.036,2.712-7.559,3.882-1.234.573-2.442,1.291-3.723,1.941a8.3,8.3,0,0,0-1.779,1l0.112,0.111a2.1,2.1,0,0,0,.5.946c1.587-.517,3.018-1.652,4.613-2.384,2.758-1.267,5.695-3.02,8.281-4.271A3.618,3.618,0,0,0,227.565,348.571Zm7.8,7.8a0.292,0.292,0,0,1-.167-0.056l-0.055.055,1.114,1.559,0.056-.055C236.067,357.389,235.569,356.854,235.363,356.369ZM245,366.227a2.068,2.068,0,0,0-.889.555,1.108,1.108,0,0,0,.168.278,1.444,1.444,0,0,1,.389-0.055,2.411,2.411,0,0,0,.555-0.555C245.148,366.376,245.074,366.3,245,366.227Zm-7.685-6.908c0.047,0.145.022,0.121,0.167,0.167Zm-2.673-2.34a2.266,2.266,0,0,0,.167.39l0.056-.167C234.789,357.128,234.715,357.054,234.641,356.979Zm-4.734-3.955c-1.308.091-2.577,1.129-3.89,1.774-2.106,1.034-4.217,2.184-6.392,3.272a9.5,9.5,0,0,0-2.834,1.609c0.976,1.473,2.1,3.2,2.955,4.732,0.621,1.11,1.43,1.856,2.062,2.951a19.242,19.242,0,0,0,2.62,3.841,6.422,6.422,0,0,1,1.111-.443c0.529-.213.866-0.573,1.39-0.833,0.571-.283,1.342-0.606,1.889-0.887,1.774-.91,3.271-1.992,5.058-2.829,0.965-.452,3.011-1.178,3.667-2.108a33.888,33.888,0,0,1-2.174-3.4c-0.487-.824-1.126-1.326-1.616-2.172A51.122,51.122,0,0,0,229.907,353.024Zm6.852,6.962c0.047,0.145.022,0.12,0.167,0.167Zm0.167,0.278c0.047,0.145.022,0.121,0.167,0.167Zm0.167,0.279c0.047,0.144.022,0.12,0.167,0.167C237.205,360.654,237.149,360.6,237.093,360.543Zm0.335,0.445a0.278,0.278,0,0,0,.056.167A0.292,0.292,0,0,0,237.428,360.988Zm1,1.448a0.23,0.23,0,0,0,.223.222Zm-10.75-10.417a2.647,2.647,0,0,0-.555.333l0.055,0.056,0.111-.111A0.484,0.484,0,0,0,227.681,352.019Zm-0.667.333c-0.24.183-.311,0.156-0.555,0.333l0.055,0.056A0.91,0.91,0,0,0,227.014,352.352Zm-0.667.333-0.333.222,0.056,0.055A0.518,0.518,0,0,0,226.347,352.685Zm13.425,13.757a25.2,25.2,0,0,0-3.78,1.886c-2.1,1.045-4.16,2.221-6.336,3.328-0.569.289-3.219,1.416-3.39,1.83-0.06.222-.074,0.051,0.056,0.278,0.047,0.126,0,.015.167,0.167,1.089-.679,2.449-1.215,3.557-1.774,2.032-1.025,3.781-2.207,5.836-3.162a22.28,22.28,0,0,0,4.168-2.163,0.22,0.22,0,0,1,0-.111ZM225.9,352.907a31.912,31.912,0,0,1-4.224,2.107c-1.246.574-2.2,1.3-3.446,1.886a10.979,10.979,0,0,0-2.056,1.054l0.055,0.055,0.111-.111a10.418,10.418,0,0,0,2.335-1.22c1.627-.786,3.384-1.806,5.057-2.5A8.931,8.931,0,0,0,225.9,352.907Zm15.318,15.762L241,368.446c-2.845,1.153-5.486,3.011-8.336,4.438-1.419.71-4.026,1.654-5.113,2.884,0.056,0.056.111,0.112,0.167,0.167,2.89-1.124,5.526-3.058,8.392-4.492,0.919-.46,1.839-1.041,2.834-1.5A8.18,8.18,0,0,0,241.221,368.669Zm-2.5-.282-0.334.222,0.056,0.056A0.518,0.518,0,0,0,238.718,368.387Zm-0.445.222a29.183,29.183,0,0,1-3.335,1.664c-1.679.815-3.12,1.725-4.779,2.551a16.294,16.294,0,0,0-3.724,2.053l0.112,0.111,0.111-.111c1.11-.212,2.392-1.247,3.5-1.83,1.68-.884,3.574-1.949,5.335-2.773A13.142,13.142,0,0,0,238.273,368.609Zm-5.5,5.5-0.223.111,0.056,0.056,0.056-.056C232.82,374.2,232.728,374.226,232.775,374.107ZM215.9,359.9a2.462,2.462,0,0,0,.892,1.336Q216.348,360.569,215.9,359.9Zm-2.45-2.117c-0.1.222-.092,0.112,0,0.334,0.06,0.614,1.915,3.171,2.341,3.9l0.446,0.446c0.966,1.708,2.29,3.293,3.289,5.066a21.874,21.874,0,0,0,2.954,4.4l0.111-.111c-0.037-.074-0.074-0.148-0.112-0.222-0.206-1.018-2.008-2.974-2.62-4.064-1.149-2.05-2.682-3.9-3.9-6.013A18.55,18.55,0,0,0,213.451,357.783Zm3.4,3.509c-0.01.7,1.391,2.178,1.84,2.95,0.526,0.9,1.234,2.081,1.784,3.006l0.445,0.446a18.315,18.315,0,0,0,2.453,3.786l0.111-.111-0.111-.112a3.164,3.164,0,0,0-.446-0.668c-0.45-.8-1.09-1.76-1.561-2.561l-0.5-.5C219.7,365.479,218.058,363.141,216.849,361.292Zm-5.068-4.513c-1.619.316-3.575,1.885-5.224,2.663-1.331.627-2.9,1.344-4.224,2-0.547.268-.846,0.583-1.39,0.832a11.377,11.377,0,0,0-3.167,1.72l0.055,0.055-0.055.056,0.724,0.835c3.521-1.451,6.609-3.5,10.06-5.047,0.911-.409,1.664-0.972,2.556-1.331a1.519,1.519,0,0,0,.723-0.5A2.275,2.275,0,0,0,211.781,356.779Zm0.561,3c-3.174,1.416-6.115,3.258-9.337,4.769-0.569.267-3.1,1.312-3.279,1.72-0.059.222-.062,0.11,0.111,0.334a27.132,27.132,0,0,1,2.612-1.276c2.036-.994,3.706-2.157,5.725-3.162a22.319,22.319,0,0,0,4.279-2.274Zm1.281,1.5c-3.12,1-6.338,3.314-9.448,4.77-0.978.457-3.083,1.244-3.724,2.163,1.022,1.491,2.094,3.28,2.955,4.844,0.588,1.066,1.349,1.79,1.951,2.839a20.033,20.033,0,0,0,2.62,3.953l0.055-.056,0.056,0.056a14.572,14.572,0,0,1,2.89-1.442c2.313-1.129,4.326-2.4,6.614-3.606a16.127,16.127,0,0,0,3.5-1.941l-0.112-.223c-0.163-1.064-1.571-2.419-2.174-3.507-1.02-1.841-2.385-3.491-3.512-5.4A11.45,11.45,0,0,0,213.623,361.287Zm11.089,14.533c-1.929.873-3.725,2.125-5.724,3.051a63.444,63.444,0,0,0-6.391,3.272l0.055,0.056,0.056-.056c0.868-.071,2.055-1.094,2.945-1.5,1.86-.843,4.184-2.074,6.225-3.106A13.57,13.57,0,0,0,224.712,375.82Zm-1.336-.781a23.283,23.283,0,0,0-3.445,1.775c-2.271,1.2-4.722,2.492-7.059,3.6-0.9.43-1.76,0.972-2.612,1.387a2.482,2.482,0,0,0-.833.61,0.372,0.372,0,0,0,.167.39c2.514-.795,4.779-2.566,7.281-3.716,1.4-.642,2.757-1.484,4.224-2.219a8.476,8.476,0,0,0,2.389-1.387C223.451,375.336,223.414,375.188,223.376,375.039Zm1.5,2.172c-1.4.138-2.647,1.3-4.057,1.94-2.241,1.023-4.377,2.424-6.669,3.55a13.268,13.268,0,0,0-3.446,1.886,1.133,1.133,0,0,0,.167.279,71.805,71.805,0,0,0,6.5-3.384c2.492-1.251,5.14-2.46,7.558-3.993C224.919,377.4,224.9,377.3,224.881,377.211ZM197.222,365.88c-0.03.757,1.1,1.642,1.5,2.394,1.09,2.013,2.627,4.1,3.736,6.068a19.174,19.174,0,0,0,2.006,2.672,13.368,13.368,0,0,1-1.673-2.783l-0.445-.446c-0.283-.5-0.68-1.223-0.949-1.725l-0.612-.724A41.345,41.345,0,0,0,197.222,365.88Zm-1-.892a6.093,6.093,0,0,0-1.723,1.277,9.775,9.775,0,0,0,2.23,3.563,0.82,0.82,0,0,0,.445-0.222,0.533,0.533,0,0,0,.278-0.166l-0.112-.223c-0.149-.9-2.092-2.622-1.729-3.395a2.263,2.263,0,0,1,.722-0.722Zm15.987,17.321-0.611.389,0.056,0.055A1.15,1.15,0,0,0,212.207,382.309Zm-13.143-12.144a0.54,0.54,0,0,0,.334.446A2.812,2.812,0,0,0,199.064,370.165Zm-1,0a1.961,1.961,0,0,0-.557,0,6.593,6.593,0,0,1-.778.444l-0.723-.057a7.253,7.253,0,0,0-1.056.61,8.22,8.22,0,0,1-.834.055,15.775,15.775,0,0,0-2.112,1.22c-1.454.728-2.9,1.548-4.446,2.33-0.591.3-3.243,1.387-3.445,1.886-0.238.628,1.188,2.276,1.561,3.006,1.108,2.165,2.6,4.131,3.792,6.346a8.347,8.347,0,0,0,1.672,2.672c3.461-1.364,6.768-3.554,10.171-5.269,0.91-.459,3.308-1.358,3.723-2.275-0.649-1.6-1.982-2.989-2.9-4.565A58.294,58.294,0,0,0,198.063,370.164Zm-4.289-4.178a18.975,18.975,0,0,0-2.39,1.165c-2.34,1.079-4.718,2.366-7.114,3.549-0.579.286-3.014,1.261-3.224,1.775a11.017,11.017,0,0,0,.67,1.225,11.956,11.956,0,0,1,1.556-.666c0.539-.225.837-0.579,1.389-0.832,0.833-.382,1.919-0.887,2.724-1.275l0.333-.333a5.908,5.908,0,0,1,.612-0.166c0.905-.368,1.5-0.975,2.389-1.387,1-.464,2.66-0.9,3.39-1.942C193.878,366.7,193.99,366.387,193.774,365.986Zm7.687,7.909a0.343,0.343,0,0,0,.278.39Zm3.119,3.231c-0.15.13-.1,0.185,0.112,0.445l0.056-.056A2.041,2.041,0,0,0,204.58,377.126Zm-2.394-2.062a0.282,0.282,0,0,0,.055.167A0.282,0.282,0,0,0,202.186,375.064Zm3.063,3.286a2.1,2.1,0,0,0,.836,1.281Q205.668,378.991,205.249,378.35Zm-9.8-8.579-0.111.111,0.056,0.055,0.111-.111Zm-2.281-.059c-2.156.8-4.132,2.192-6.335,3.216a11.992,11.992,0,0,0-3.5,1.942l0.056,0.056-0.056.055,0.223,0.112a17.352,17.352,0,0,1,2.335-1.109c1.356-.622,2.41-1.5,3.779-2.108a13.121,13.121,0,0,0,3.612-1.942C193.242,369.86,193.205,369.786,193.167,369.712Zm13.537,14.2a0.69,0.69,0,0,0-.39.055,5.323,5.323,0,0,0-1.167.61c-1.267.585-2.446,1.377-3.779,2-1.614.751-3.2,1.783-4.891,2.552a21.134,21.134,0,0,0-4.168,2.163,0.823,0.823,0,0,0,.223.445,0.4,0.4,0,0,0,.112.223c1.579-.641,2.944-1.64,4.557-2.441,2.075-1.031,4.313-2.242,6.391-3.272,0.394-.2.59-0.457,1-0.666a8.768,8.768,0,0,0,2.112-1.11A0.6,0.6,0,0,0,206.7,383.914Zm1.5,2.06c-1.347.134-2.725,1.3-4.057,1.941-2.2,1.059-4.294,2.31-6.558,3.439a15.014,15.014,0,0,0-3.835,2.052l0.111,0.112a0.4,0.4,0,0,0,.112.222c2.543-.761,5.238-2.81,7.781-3.993,1.187-.552,2.3-1.3,3.557-1.886a11.978,11.978,0,0,0,2.945-1.609C208.246,386.16,208.227,386.067,208.208,385.974Zm-2.614-.059a1.091,1.091,0,0,0-.278.166l0.056,0.056,0.055-.056C205.572,386.035,205.548,386.06,205.594,385.915Zm-0.445.222-0.277.166,0.055,0.056,0.111-.111c0.071-.008.083,0.078,0.167-0.056Zm-0.444.222-0.111.111,0.055,0.055,0.111-.111Zm-0.223.11-1.5.833,0.056,0.055,0.055-.055A2.134,2.134,0,0,0,204.482,386.469Zm-1.667.888-0.111.111,0.056,0.056,0.111-.111C202.852,387.394,202.834,387.375,202.815,387.357Zm-0.945.5a0.385,0.385,0,0,0-.111.222l0.167-.166Zm-0.5.277a0.387,0.387,0,0,0-.111.223l0.167-.167Zm-21.156-14.157a0.723,0.723,0,0,0,.5.723A8.176,8.176,0,0,0,180.214,373.976Zm1.06,1.725a0.282,0.282,0,0,0,.055.167A0.282,0.282,0,0,0,181.274,375.7Zm0.167,0.279c-0.051.678,0.708,1.255,1.059,1.948,0.781,1.538,1.962,3.053,2.733,4.62a4.337,4.337,0,0,0,1.226,1.671,11.855,11.855,0,0,1-.948-1.726c-0.655-1.141-1.36-1.947-2.007-3.118A27.055,27.055,0,0,0,181.441,375.98Zm-2.45-2.006-0.111.111,0.111,0.111,0.056-.055C179.028,374.085,179.009,374.029,178.991,373.974Zm-0.946-.057c-2.681,1.079-5.161,2.765-7.892,3.993-1.129.507-2.241,1.191-3.446,1.775a9.449,9.449,0,0,0-2.112,1.109l0.056,0.056-0.056.055c0.337,0.372.594,0.649,0.947,1.058,2.909-1.138,5.659-2.919,8.5-4.381,1.43-.735,3.274-1.222,4.613-2.385C178.353,374.741,178.319,374.328,178.045,373.917Zm4.066,4.066-0.333.222,0.111,0.111,0.278-.277C182.148,378.02,182.13,378,182.111,377.983Zm-15.065,5.151,0.223,0.222c2.473-1,4.744-2.525,7.225-3.66,0.89-.407,1.75-0.975,2.723-1.387a13.046,13.046,0,0,0,2.668-1.331,0.835,0.835,0,0,0-.167-0.389c-0.679.217-1.264,0.727-2,1a63.26,63.26,0,0,0-5.725,2.94c-0.762.376-1.73,0.777-2.5,1.164-0.313.157-.405,0.354-0.722,0.5A5.781,5.781,0,0,0,167.046,383.134Zm16.014-2.869a1.011,1.011,0,0,0,.5.723A8.552,8.552,0,0,0,183.06,380.265Zm-2.283-1.95a89.041,89.041,0,0,0-8.392,4.27c-1.491.772-3.426,1.289-4.836,2.607,1.056,2.325,2.452,4.548,3.681,6.9,0.907,1.737,1.763,3.588,2.9,5.344a13.946,13.946,0,0,0,2.39-1.165,17.383,17.383,0,0,1,1.723-.72l0.5-.389a28.99,28.99,0,0,1,2.668-1.219l0.111-.223c0.508-.289,1.051-0.569,1.668-0.887,1.212-.627,3.848-1.588,4.723-2.608-0.183-.3-0.244-0.654-0.39-0.946-0.823-1.643-1.9-3.126-2.677-4.676-0.474-.938-1.265-1.59-1.672-2.56A13.027,13.027,0,0,0,180.777,378.315Zm3.342,3.564-0.111.111,0.167,0.167,0.056-.055Zm2.34,2.451a2.791,2.791,0,0,0,.947,1.5C186.975,385.342,186.893,384.852,186.459,384.33Zm-1.336-.67a6.626,6.626,0,0,0,1.115,2,18.532,18.532,0,0,0,2.4,4.064l0.055-.056a34.765,34.765,0,0,0-2.063-3.507A14.1,14.1,0,0,0,185.123,383.66Zm2.9,3.23a0.552,0.552,0,0,0,.112.334l0.055-.055-0.056-.056,0.056-.055Zm4.237,7.237-0.166.167,0.167,0.167,0.166-.167Zm-17.066,6.149a1.247,1.247,0,0,0,.39.39c0.643,0.181,2.756-1.357,3.668-1.774,2.452-1.123,4.844-2.535,7.337-3.772a11.451,11.451,0,0,0,3.223-1.775l-0.446-.557-0.055.056c-0.019-.019-0.037-0.038-0.056-0.056a6.238,6.238,0,0,1-1.334.665c-0.978.482-1.851,1.054-2.779,1.442-0.86.361-1.479,0.912-2.334,1.332-1.272.624-2.61,1.358-3.946,2.052A15.942,15.942,0,0,0,175.191,400.276Zm1.394,2.06,0.278,0.39a19.878,19.878,0,0,0,2.446-1.22c2.1-1.027,4.162-2.244,6.336-3.328,1.361-.679,2.767-1.546,4.223-2.219a3.8,3.8,0,0,0,1.334-.777l-0.334-.334c-2.783,1.123-5.365,2.8-8.114,4.215-1.189.612-2.434,1.3-3.724,1.942A10.778,10.778,0,0,0,176.585,402.336ZM163.151,381.9a0.563,0.563,0,0,0-.222.556l-0.055.056,0.055,0.055,0.167-.166a0.909,0.909,0,0,1,.166-0.389Zm-1.112.221a66.459,66.459,0,0,0-6.114,3.217c-0.466.248-1.157,0.408-1.667,0.665-0.685.344-1.155,0.77-1.834,1.054-1.06.444-3.981,1.788-4.669,2.552q0.363,0.585.725,1.169c3.2-1.277,6.188-3.2,9.337-4.77a23.724,23.724,0,0,0,4.5-2.385A7.582,7.582,0,0,0,162.039,382.125Zm3.288,4.4a4.452,4.452,0,0,0,.781,1.558l0.055-.055A7.6,7.6,0,0,0,165.327,386.524Zm-2-1.56a30.338,30.338,0,0,1-2.834,1.386c-2.281,1.11-4.251,2.383-6.5,3.5-1.129.557-3.176,1.292-4,2.218l0.111,0.112c0.04,0.068-.022.065,0.056,0.056,0.862,0.06,2.795-1.368,3.724-1.83,2.087-1.039,4.106-2.184,6.28-3.273a13.158,13.158,0,0,0,3.39-1.83l-0.056-.056,0.056-.056Zm3.009,3.452a1.084,1.084,0,0,0,.279.613A0.837,0.837,0,0,0,166.331,388.416Zm4.687,10.575a30.1,30.1,0,0,1-1.841-3.618c-0.944-1.774-1.847-3.226-2.788-5.01a14.3,14.3,0,0,0-2.007-3.562,25.678,25.678,0,0,0-3.113,1.552c-1.7.79-3.336,1.848-5.113,2.663-1.568.718-4.07,1.638-5.5,2.94a4.77,4.77,0,0,1,.335.89c0.435,1.079,1.086,2.064,1.506,3.061,0.768,1.822,1.859,3.34,2.677,5.121a14.65,14.65,0,0,0,1.841,3.507c0.945-.593,2.241-1.055,3.223-1.553,0.631-.319,1.017-0.72,1.668-1,0.046-.02.309,0.014,0.333,0,1.283-.7,2.71-1.66,4.168-2.386C167.589,401.009,170.172,399.98,171.018,398.991Zm-4.186-9.628c0.049,0.807.827,1.651,1.228,2.449,0.73,1.455,1.576,2.821,2.342,4.341a9.654,9.654,0,0,0,1.227,2.227l0.055-.056c-0.509-1.535-1.622-2.842-2.4-4.4A24.337,24.337,0,0,0,166.832,389.363Zm8.475,13.917-0.111.111,0.055,0.055,0.111-.111Zm-3.173-1.395a32.85,32.85,0,0,0-3.445,1.774c-2.278,1.057-4.452,2.377-6.781,3.55-0.952.48-3.512,1.526-4.112,2.33,0.111,0.112.223,0.223,0.334,0.334a23.881,23.881,0,0,0,3.39-1.719c1.238-.615,2.66-1.274,3.891-1.885,0.569-.283.862-0.613,1.445-0.888,0.922-.436,2.069-1.011,3-1.442l0.778-.555a8.387,8.387,0,0,0,1.89-1l-0.056-.056,0.055-.055Zm1.95,1.949a2.658,2.658,0,0,0-.334,0,3.782,3.782,0,0,0-.945.5c-1.165.572-2.272,1.325-3.5,1.941-1.384.695-2.9,1.472-4.279,2.163-0.714.359-1.164,0.819-1.89,1.11a13.836,13.836,0,0,0-3.557,1.886l0.112,0.111-0.056.056c0,0.111.11,0,.111,0,0.639,0.237,2.78-1.308,3.558-1.663,1.648-.755,3.469-1.668,5.057-2.5,0.629-.327.93-0.7,1.556-1a20.833,20.833,0,0,0,4.28-2.274C174.158,404.057,174.121,403.945,174.084,403.834Zm-2.948.163-0.111.111,0.056,0.055,0.111-.111Zm-0.444.222-0.334.222,0.056,0.055,0.111-.111C170.67,404.339,170.646,404.364,170.692,404.219Zm-2.057,1.053-0.444.333c0.018,0.019.037,0.038,0.056,0.056A0.715,0.715,0,0,0,168.635,405.272Zm-0.555.333a1,1,0,0,1-.278.167l0.056,0.055,0.055-.055C168.058,405.725,168.034,405.75,168.08,405.605Zm-0.834.388a8.84,8.84,0,0,1-.834.5l0.056,0.055,0.111-.111A0.7,0.7,0,0,0,167.246,405.993Zm-0.945.5a4.472,4.472,0,0,1-1.167.61l0.111,0.111A2.791,2.791,0,0,0,166.3,406.493Zm-1.278.721-0.667.332c0.019,0.019.037,0.038,0.056,0.056l0.055-.055A0.833,0.833,0,0,0,165.023,407.214Zm-1.334.665-0.556.333,0.056,0.056,0.056-.056A0.663,0.663,0,0,0,163.689,407.879Zm-0.889.444-2.89,1.553,0.056,0.056,0.111-.111A8.854,8.854,0,0,0,162.8,408.323Zm-16.042-15.93a0.92,0.92,0,0,0,.168.389A0.533,0.533,0,0,0,146.758,392.393Zm-1.837-1.5a6.154,6.154,0,0,1-1.557.665,5.129,5.129,0,0,1-.388.389l-2.446,1.22c-0.543.288-1.441,0.633-1.166,1.278,0.5-.031.655,0.715,1.113,0.558a6.841,6.841,0,0,0,1.612-.832c1.024-.474,2.712-0.981,3.445-2A5.024,5.024,0,0,0,144.921,390.888Zm6.963,7.519a0.93,0.93,0,0,0,.167.389A0.529,0.529,0,0,0,151.884,398.407Zm4.128,8.46,0.167-.167a9.425,9.425,0,0,1-.949-1.948c-0.429-.931-0.918-1.814-1.338-2.671-0.208-.425-0.5-0.581-0.669-1a9.881,9.881,0,0,0-1-2l-0.056.055a7.069,7.069,0,0,1,.726,1.614c0.575,1.261,1.26,2.245,1.84,3.507A14.549,14.549,0,0,0,156.012,406.867Zm-9.585-13.029a21.51,21.51,0,0,0-3,1.442c-1.06.471-2.332,1.083-3.39,1.608-0.632.313-1.015,0.694-1.667,1-1.2.56-2.405,1.249-3.668,1.885a5.819,5.819,0,0,0-1.556.888l0.111,0.111a0.4,0.4,0,0,0,.112.223c2.649-.785,5.084-2.731,7.725-3.938,1.079-.493,2.123-1.17,3.279-1.719a8.034,8.034,0,0,0,2.167-1.165A1.187,1.187,0,0,0,146.427,393.838Zm4.066,4.177a1.031,1.031,0,0,0,.168.5A1.059,1.059,0,0,0,150.493,398.015Zm0.223,0.557a0.285,0.285,0,0,0,.056.167A0.278,0.278,0,0,0,150.716,398.572Zm0.112,0.223a1.492,1.492,0,0,0,.112.334A0.316,0.316,0,0,0,150.828,398.8Zm-3.453-3.231a24.569,24.569,0,0,0-3.335,1.663c-2,.967-4,2.085-6.058,3.162-1.242.65-2.985,1.272-3.723,2.275,0.3,0.506-.056.871,0.113,1.335,0.306,0.841.824,1.451,1.171,2.282,0.926,2.217,2.163,4.386,3.125,6.679,0.464,1.107,1.069,2.165,1.562,3.339a5.6,5.6,0,0,0,.892,1.781c1.428-.557,2.725-1.449,4.169-2.163a3.109,3.109,0,0,0,1.389-.832c0.2-.489-0.3-0.955-0.336-1.447-0.044-.558.444-1.11,0.443-1.667,0.764-.362,1.616-0.776,2.334-1.109,0.672-.312,1.063-0.774,1.723-1.055a6.683,6.683,0,0,0,2.834-1.72,3.469,3.469,0,0,1-.335-1.113l-0.056-.055-0.056.055a3.648,3.648,0,0,1-.446-1.113,10.8,10.8,0,0,1-.669-0.891c-0.739-1.634-1.679-3.4-2.4-5.065a0.261,0.261,0,0,0,.167-0.166,1.254,1.254,0,0,1-.725-1.058A15.171,15.171,0,0,0,147.375,395.564Zm3.955,4.177a0.489,0.489,0,0,0,.334.557A2.285,2.285,0,0,1,151.33,399.741Zm0.334,0.668a1.619,1.619,0,0,0,.168.5A0.71,0.71,0,0,0,151.664,400.409Zm0.279,0.612c0.046,0.839.838,1.608,1.228,2.449,0.332,0.717.693,1.629,1.06,2.393a4.923,4.923,0,0,0,.78,1.336c0.019,0.019.038,0.037,0.056,0.056a0.278,0.278,0,0,0-.056-0.167,4.333,4.333,0,0,0-.836-1.725A46.868,46.868,0,0,0,151.943,401.021Zm7.8,8.91a0.387,0.387,0,0,0-.111.223l0.167-.167Zm-0.278.167-0.111.111,0.056,0.056,0.111-.111C159.5,410.135,159.484,410.116,159.465,410.1Zm-0.222.111c-0.274.189-.58,0.351-0.834,0.5l0.056,0.056,0.111-.111A0.656,0.656,0,0,0,159.243,410.209Zm-20.435-15.548a2.327,2.327,0,0,0-.5.055l0.111,0.112a0.536,0.536,0,0,0,.334.445c0.071-.008.083,0.078,0.167-0.055l-0.056-.056A0.473,0.473,0,0,0,138.808,394.661Zm16.1,16.543c-0.081,0-.2-0.052-0.278-0.056a3.137,3.137,0,0,0-1.667.887l0.111,0.223a0.4,0.4,0,0,0,.112.222,5.374,5.374,0,0,0,1.834-.942C154.981,411.426,154.943,411.315,154.906,411.2Zm1.671,1.782c-0.546.19-2.551,0.981-2.167,1.61l0.056-.056c0.018,0.019.037,0.037,0.056,0.056,0.709-.543,1.525-0.707,2.278-1.276-0.018-.019-0.037-0.037-0.056-0.056l0.056-.055Zm-18.489-16.045q-0.166-.168-0.334-0.334c-1.913.58-3.691,1.94-5.613,2.828-4.271,1.973-8.5,4.549-12.783,6.544-0.936.436-1.56,1.039-2.5,1.5-2.015.984-4.216,2.149-6.225,3.105-0.534.254-.794,0.638-1.333,0.888a15.858,15.858,0,0,0-3.835,2.053,1.187,1.187,0,0,0,.112.333c2.1-.576,4.033-2.068,6.113-3.105,3.954-1.973,8.084-4.132,12.005-6.1,1.186-.6,2.126-1.289,3.335-1.886,1.423-.7,2.982-1.45,4.39-2.163,0.931-.471,1.609-1.035,2.557-1.442A17.026,17.026,0,0,0,138.088,396.941Zm14.039,15.927a1.438,1.438,0,0,0-.611.389l0.112,0.111,0.111-.111a0.811,0.811,0,0,0,.444-0.222C152.165,412.979,152.146,412.924,152.127,412.868Zm-2,.665a1.108,1.108,0,0,0-.278.166l0.056,0.056-0.056.055,0.223,0.334,0.112-.111a0.394,0.394,0,0,0,.222-0.111l-0.056-.055,0.056-.056Zm1.227,2.226a35.511,35.511,0,0,0-4,2.108,28.353,28.353,0,0,0-4.89,2.551,0.9,0.9,0,0,0,.279.5c0.855-.527,2-0.984,2.89-1.442,1.058-.544,1.837-1.139,2.889-1.664a11.977,11.977,0,0,0,3.057-1.72l-0.056-.055,0.056-.056Zm-3.781.44a14.773,14.773,0,0,0-2,1c-1.862.913-3.733,1.97-5.669,3-1.833.971-3.892,2.029-5.78,2.884-0.741.335-1.2,0.823-1.945,1.165-2.7,1.244-5.271,2.8-8,4.216-2.1,1.089-4.113,2.124-6.392,3.272a12.614,12.614,0,0,0-3.445,1.886,1.23,1.23,0,0,0,.223.334,91.6,91.6,0,0,0,8.336-4.326c1.242-.65,2.787-1.372,4.058-1.941,0.934-.419,1.589-1.014,2.5-1.5,3.336-1.771,6.9-3.725,10.338-5.325,2.113-.984,4.14-2.182,6.169-3.161a16.677,16.677,0,0,0,1.778-1.11C147.8,416.367,147.771,416.417,147.572,416.2ZM132.7,402.439a1.922,1.922,0,0,0,.391.835c0.167,0.432.309,1.073,0.5,1.5,0.3,0.656.675,1.063,0.948,1.725,1.035,2.514,2.432,4.929,3.515,7.514a31.554,31.554,0,0,0,2.064,4.4l0.111-.111c-0.037-.075-0.074-0.149-0.112-0.223a4.272,4.272,0,0,0-.446-1c-0.282-.679-0.618-1.552-0.893-2.226-0.176-.43-0.5-0.665-0.669-1.113-0.854-2.194-2.048-4.287-3.069-6.512A46.793,46.793,0,0,0,132.7,402.439Zm-2.948-.06c-2.354.934-4.409,2.4-6.891,3.55-1.555.72-3.027,1.624-4.669,2.44a13.749,13.749,0,0,0-2.334,1.221,0.823,0.823,0,0,0,.223.445c2.01-.518,3.887-2.061,5.891-3,1.548-.721,3.038-1.628,4.669-2.44a13.6,13.6,0,0,0,3.223-1.776A1.426,1.426,0,0,0,129.753,402.379Zm1,1.893a20.032,20.032,0,0,0-2.89,1.442c-2.46,1.128-4.824,2.641-7.336,3.882-1.094.542-3.215,1.228-4,2.331a23.126,23.126,0,0,1,1.451,3.45c1.155,2.838,2.521,5.417,3.794,8.237,0.528,1.17.822,2.623,1.841,3.729,0.947-.383,2.036-0.949,2.946-1.386,0.371-.178.448-0.424,0.833-0.61,1.533-.743,3.276-1.544,4.78-2.329,0.945-.494,1.51-0.977,2.445-1.443,0.575-.287,3.111-1.343,3.335-1.886a1.339,1.339,0,0,0-.28-0.946,26.258,26.258,0,0,0-1.451-3.117c-1.107-2.254-2.312-4.745-3.18-7.068q-0.363-.585-0.725-1.169A11.54,11.54,0,0,0,130.757,404.272Zm8.647,17.755c-3.8,1.479-7.414,3.913-11.171,5.824-0.846.43-1.7,0.961-2.612,1.386a2.457,2.457,0,0,0-1.112.666,0.629,0.629,0,0,0-.055.278,0.266,0.266,0,0,0,.167.056,1.647,1.647,0,0,0,1.112-.443c0.9-.415,1.832-0.977,2.779-1.442,2.385-1.173,4.714-2.589,7.169-3.716,0.689-.317,1.4-0.855,2.168-1.165a6.1,6.1,0,0,0,1.889-1l-0.055-.055,0.055-.056Zm-2.222,2-0.111.111,0.056,0.056,0.111-.111Zm-21.319-11.433a3.854,3.854,0,0,0,.447,1.224l0.111-.111A6.055,6.055,0,0,0,115.863,412.593Zm0.893,1.892-0.111.112a15.942,15.942,0,0,1,1.172,2.838c0.439,1.083,1.016,1.957,1.451,3,0.181,0.437.507,1.672,0.948,1.837a15.821,15.821,0,0,1-.782-2l-0.613-.947c-0.307-.683-0.551-1.581-0.838-2.281-0.172-.422-0.422-0.634-0.613-1.058A7.789,7.789,0,0,0,116.756,414.485Zm-4.565-3.01a9.439,9.439,0,0,1-1.167.5c-0.722.344-1.182,0.777-1.89,1.11a2.769,2.769,0,0,0-1.167.721c-0.059.224,0.007,0.23,0.223,0.446,0.8-.222,3.665-1.578,4.169-2.275A1.671,1.671,0,0,0,112.191,411.475Zm8.025,10.913a4,4,0,0,0,.558,1.336,28.083,28.083,0,0,0,1.73,3.729,4.806,4.806,0,0,0-.558-1.336A16.221,16.221,0,0,0,120.216,422.388Zm0.84,4.284a0.923,0.923,0,0,0,.168.39A0.535,0.535,0,0,0,121.056,426.672Zm-14.366-11.7a1.451,1.451,0,0,0-.389.278,4.944,4.944,0,0,1,.557.891,0.267,0.267,0,0,1-.167.055c-0.5-.115-0.579-0.6-1.112-0.113a0.852,0.852,0,0,0-.389.278l0.056,0.055-0.056.056,0.613,0.39a1.971,1.971,0,0,1,.5-0.055,1.549,1.549,0,0,0,.832-1.389Zm14.6,16.485c-1.3.8-2.864,1.2-4.113,2.219l0.112,0.222c0.047,0.126,0,.015.167,0.167,1.042-.389,2.145-1.064,3.168-1.5a2.2,2.2,0,0,0,.833-0.61l0.111-.223ZM104.8,415.08a1.347,1.347,0,0,0-.39-0.279c-0.018.056-.037,0.111-0.055,0.167a1.187,1.187,0,0,0,.111.334l0.056-.056,0.056,0.056Zm11.431,20.206a2.064,2.064,0,0,0-.835-0.5,0.772,0.772,0,0,0,.113,1.113,0.61,0.61,0,0,0,.334,0A6.968,6.968,0,0,0,116.23,435.286Zm-2.782-.671a2.859,2.859,0,0,0-.334,0c-0.067.04-.064-0.022-0.055,0.056a1,1,0,0,0,.5.835,0.275,0.275,0,0,1,.166-0.056,0.262,0.262,0,0,0,.056-0.166c0.065-.209.062-0.014,0-0.223A1.043,1.043,0,0,0,113.448,434.615Zm2.061,2.061-0.613-.5-0.778.444,0.112,0.111a0.742,0.742,0,0,0,.723.28A0.931,0.931,0,0,0,115.509,436.676Z" transform="translate(0 -241)"/>
  </g>
</svg>
